<?xml version="1.0" encoding="UTF-8"?>
<svg width="19px" height="24px" viewBox="0 0 19 24" version="1.1" xmlns="http://www.w3.org/2000/svg" xmlns:xlink="http://www.w3.org/1999/xlink">
    <!-- Generator: Sketch 60.1 (88133) - https://sketch.com -->
    <title>24x24</title>
    <desc>Created with Sketch.</desc>
    <defs>
        <path d="M3.74183459,0 L14.9673383,0 C17.0338965,0 18.7091729,1.67527641 18.7091729,3.74183459 L18.7091729,14.9673383 C18.7091729,17.0338965 17.0338965,18.7091729 14.9673383,18.7091729 L3.74183459,18.7091729 C1.67527641,18.7091729 0,17.0338965 0,14.9673383 L0,3.74183459 C0,1.67527641 1.67527641,0 3.74183459,0 Z" id="path-1"></path>
    </defs>
    <g id="Page-1" stroke="none" stroke-width="1" fill="none" fill-rule="evenodd">
        <g id="Artboard" transform="translate(-107.000000, -80.000000)">
            <g id="24x24" transform="translate(107.000000, 80.000000)">
                <path d="M14.9766333,19.5406316 L14.9766929,22.8529083 C14.9766929,23.4728757 14.47411,23.9754586 13.8541426,23.9754586 C13.2341751,23.9754586 12.7315806,23.4728757 12.7315806,22.8529083 L12.7315806,19.5406316 L14.9766333,19.5406316 Z M13.8541426,14.9673383 C14.47411,14.9673383 14.9766929,15.4699213 14.9766929,16.0898887 L14.9766333,18.7091128 L12.7315806,18.7091128 L12.7315806,16.0898887 C12.7315806,15.4699213 13.2341751,14.9673383 13.8541426,14.9673383 Z" id="Shape" fill="#2765FF"></path>
                <path d="M5.99623026,19.5406316 L5.99628992,22.8529083 C5.99628992,23.4728757 5.493707,23.9754586 4.87373955,23.9754586 C4.2537721,23.9754586 3.75117762,23.4728757 3.75117762,22.8529083 L3.75117762,19.5406316 L5.99623026,19.5406316 Z M4.87373955,14.9673383 C5.493707,14.9673383 5.99628992,15.4699213 5.99628992,16.0898887 L5.99623026,18.7091128 L3.75117762,18.7091128 L3.75117762,16.0898887 C3.75117762,15.4699213 4.2537721,14.9673383 4.87373955,14.9673383 Z" id="Shape" fill="#2765FF"></path>
                <path d="M3.74183459,0 L14.9673383,0 C17.0338965,0 18.7091729,1.67527641 18.7091729,3.74183459 L18.7091729,14.9673383 C18.7091729,17.0338965 17.0338965,18.7091729 14.9673383,18.7091729 L3.74183459,18.7091729 C1.67527641,18.7091729 0,17.0338965 0,14.9673383 L0,3.74183459 C0,1.67527641 1.67527641,0 3.74183459,0 Z" id="Rectangle" fill="#2765FF"></path>
                <g id="Shadow-Mask">
                    <mask id="mask-2" fill="white">
                        <use xlink:href="#path-1"></use>
                    </mask>
                    <use id="Mask" fill="#2765FF" xlink:href="#path-1"></use>
                    <polygon id="Rectangle" fill="#0036BC" opacity="0.283918108" style="mix-blend-mode: multiply;" mask="url(#mask-2)" points="13.4082406 8.00336842 22.8242121 14.302416 18.7091729 20.6147368 9.56246617 14.4129925 13.4671742 8.10032058"></polygon>
                </g>
                <path d="M8.95276455,10.8513203 L5.7940217,10.8513203 C5.29804773,10.8513203 4.8959814,10.449254 4.8959814,9.95328 C4.8959814,9.77598441 4.9484611,9.60265572 5.046807,9.45513687 L8.39137276,4.43828823 C8.55510823,4.19268502 8.8869428,4.12631811 9.132546,4.29005358 C9.32048395,4.41534554 9.40936879,4.64525567 9.35458647,4.86438496 L8.88518132,6.74200557 C8.76488996,7.22317099 9.05743619,7.71074804 9.53860161,7.83103939 C9.60983471,7.84884767 9.68298298,7.85785263 9.75640838,7.85785263 L12.9151512,7.85785263 C13.4111252,7.85785263 13.8131915,8.25991897 13.8131915,8.75589293 C13.8131915,8.93318853 13.7607118,9.10651721 13.6623659,9.25403606 L10.3178002,14.2708847 C10.1540647,14.5164879 9.82223014,14.5828548 9.57662693,14.4191194 C9.38868898,14.2938274 9.29980414,14.0639173 9.35458647,13.844788 L9.82399162,11.9671674 C9.94428297,11.4860019 9.65173674,10.9984249 9.17057132,10.8781335 C9.09933822,10.8603253 9.02618995,10.8513203 8.95276455,10.8513203 Z" id="Path-14" fill="#FFFFFF"></path>
            </g>
        </g>
    </g>
</svg>