<?xml version="1.0" encoding="UTF-8"?>
<svg width="312px" height="399px" viewBox="0 0 312 399" version="1.1" xmlns="http://www.w3.org/2000/svg" xmlns:xlink="http://www.w3.org/1999/xlink">
    <!-- Generator: Sketch 60.1 (88133) - https://sketch.com -->
    <title>Final Icon</title>
    <desc>Created with Sketch.</desc>
    <defs>
        <path d="M62.208,0 L248.832,0 C283.18853,0 311.04,27.8514703 311.04,62.208 L311.04,248.832 C311.04,283.18853 283.18853,311.04 248.832,311.04 L62.208,311.04 C27.8514703,311.04 0,283.18853 0,248.832 L0,62.208 C0,27.8514703 27.8514703,0 62.208,0 Z" id="path-1"></path>
    </defs>
    <g id="Page-1" stroke="none" stroke-width="1" fill="none" fill-rule="evenodd">
        <g id="Final-Icon">
            <path d="M248.986528,324.863 L248.98752,379.9296 C248.98752,390.236559 240.632079,398.592 230.32512,398.592 C220.018161,398.592 211.662528,390.236559 211.662528,379.9296 L211.662528,324.863 L248.986528,324.863 Z M230.32512,248.832 C240.632079,248.832 248.98752,257.187441 248.98752,267.4944 L248.986528,311.039 L211.662528,311.039 L211.662528,267.4944 C211.662528,257.187441 220.018161,248.832 230.32512,248.832 Z" id="Shape" fill="#2765FF"></path>
            <path d="M99.687328,324.863 L99.68832,379.9296 C99.68832,390.236559 91.3328789,398.592 81.02592,398.592 C70.7189611,398.592 62.363328,390.236559 62.363328,379.9296 L62.363328,324.863 L99.687328,324.863 Z M81.02592,248.832 C91.3328789,248.832 99.68832,257.187441 99.68832,267.4944 L99.687328,311.039 L62.363328,311.039 L62.363328,267.4944 C62.363328,257.187441 70.7189611,248.832 81.02592,248.832 Z" id="Shape" fill="#2765FF"></path>
            <path d="M62.208,0 L248.832,0 C283.18853,0 311.04,27.8514703 311.04,62.208 L311.04,248.832 C311.04,283.18853 283.18853,311.04 248.832,311.04 L62.208,311.04 C27.8514703,311.04 0,283.18853 0,248.832 L0,62.208 C0,27.8514703 27.8514703,0 62.208,0 Z" id="Rectangle" fill="#2765FF"></path>
            <g id="Shadow-Mask">
                <mask id="mask-2" fill="white">
                    <use xlink:href="#path-1"></use>
                </mask>
                <use id="Mask" fill="#2765FF" xlink:href="#path-1"></use>
                <polygon id="Rectangle" fill="#0036BC" opacity="0.283918108" style="mix-blend-mode: multiply;" mask="url(#mask-2)" points="222.912 133.056 379.452526 237.777666 311.04 342.72 158.976 239.616 223.89177 134.66783"></polygon>
            </g>
            <path d="M148.839711,180.4032 L96.3256107,180.4032 C88.0800436,180.4032 81.3956907,173.718847 81.3956907,165.47328 C81.3956907,162.525741 82.2681658,159.644151 83.9031664,157.19165 L139.506572,73.7865418 C142.228674,69.7033884 147.745424,68.6000385 151.828577,71.3221407 C154.953046,73.4051196 156.430756,77.2273756 155.52,80.8704 L147.716139,112.085843 C145.716296,120.085218 150.579877,128.191186 158.579252,130.19103 C159.763502,130.487092 160.979592,130.6368 162.200289,130.6368 L214.714389,130.6368 C222.959956,130.6368 229.644309,137.321153 229.644309,145.56672 C229.644309,148.514259 228.771834,151.395849 227.136834,153.84835 L171.533428,237.253458 C168.811326,241.336612 163.294576,242.439961 159.211423,239.717859 C156.086954,237.63488 154.609244,233.812624 155.52,230.1696 L163.323861,198.954157 C165.323704,190.954782 160.460123,182.848814 152.460748,180.84897 C151.276498,180.552908 150.060408,180.4032 148.839711,180.4032 Z" id="Path-14" fill="#FFFFFF"></path>
        </g>
    </g>
</svg>